<svg width="160" height="56" viewBox="0 0 160 56" fill="none" xmlns="http://www.w3.org/2000/svg">
<path d="M58.4292 41.2598V43.6441H42.3472V48.5683C42.3472 49.916 43.5322 51.0045 44.9993 51.0045H58.4292V53.3889H44.9993C42.1214 53.3889 39.7515 51.2119 39.7515 48.5683V41.3116H58.4292V41.2598Z" fill="#D20A18"/>
<path d="M104.926 41.2599H102.331V55.6697H104.926V41.2599Z" fill="#D20A18"/>
<path d="M102.331 53.3371V50.9527H118.413V46.0285C118.413 44.6808 117.228 43.5923 115.76 43.5923H102.331V41.2079H115.76C118.638 41.2079 121.008 43.385 121.008 46.0285V53.2853L102.331 53.3371Z" fill="#D20A18"/>
<path d="M63.2256 38.9272H60.6299V53.3371H63.2256V38.9272Z" fill="#D20A18"/>
<path d="M76.7119 46.0803V53.3371H79.3076V46.0803C79.3076 43.4368 76.9376 41.2598 74.0598 41.2598H60.6299V43.6441H74.0598C75.5269 43.6441 76.7119 44.7326 76.7119 46.0803Z" fill="#D20A18"/>
<path d="M147.247 46.0803V53.3371H144.651V46.0803C144.651 43.4368 147.021 41.2598 149.899 41.2598H160V43.6441H149.899C148.432 43.6441 147.247 44.7326 147.247 46.0803Z" fill="#D20A18"/>
<path d="M123.209 22.9107V25.8134H156.84V31.8261C156.84 33.4848 155.373 34.8325 153.567 34.8325H116.663C115.478 34.8325 114.519 33.9513 114.519 32.8628V20.008H111.359V33.4848C111.359 35.8173 113.39 37.6834 115.93 37.6834H153.511C157.066 37.6834 159.944 35.0398 159.944 31.7743V22.8589H123.209V22.9107Z" fill="#153D8A"/>
<path d="M106.054 22.9106V31.7742C106.054 33.4329 104.587 34.7805 102.782 34.7805H65.8775C64.6925 34.7805 63.7332 33.8994 63.7332 32.8109V19.956H60.5732V33.4329C60.5732 35.7654 62.6047 37.6314 65.1439 37.6314H102.725C106.28 37.6314 109.158 34.9879 109.158 31.7223V22.8587H106.054V22.9106Z" fill="#153D8A"/>
<path d="M55.2692 22.9106V31.7742C55.2692 33.4329 53.8021 34.7805 51.9964 34.7805H39.7515V37.6832H51.9964C55.5513 37.6832 58.4292 35.0397 58.4292 31.7742V22.9106H55.2692Z" fill="#153D8A"/>
<path d="M84.0478 46.3395V46.1322C84.0478 44.7845 85.2328 43.696 86.7 43.696H97.5342V46.3913H100.13V43.696V41.3116H97.5342H86.7C84.5557 41.3116 82.6936 42.5038 81.8471 44.2661C81.565 44.8363 81.4521 45.4583 81.4521 46.1322V46.3395H84.0478Z" fill="#153D8A"/>
<path d="M97.5339 48.3092V51.0046H84.0476V48.3092H81.5083V53.3371H84.0476H97.5339H100.13V51.0046V48.3092H97.5339Z" fill="#D20A18"/>
<path d="M125.748 46.3395V46.1322C125.748 44.7845 126.933 43.696 128.4 43.696H139.234V46.3913H141.83V43.696V41.3116H139.234H128.4C126.256 41.3116 124.394 42.5038 123.547 44.2661C123.265 44.8363 123.152 45.4583 123.152 46.1322V46.3395H125.748Z" fill="#153D8A"/>
<path d="M139.291 48.3092V51.0046H125.748V48.3092H123.209V53.3371H125.748H139.291H141.887V51.0046V48.3092H139.291Z" fill="#D20A18"/>
<path d="M39.4129 0.0519562V1.24414V1.91798C39.4129 2.59182 38.7922 3.16199 38.0586 3.16199H37.4379H34.3908C23.4437 3.16199 13.5688 8.76005 8.49023 17.3645L10.9731 19.6452C15.318 11.5073 24.403 6.16836 34.3908 6.16836H37.4379H38.0586C38.5664 6.16836 39.0179 6.06469 39.4129 5.96102V28.3533H35.4629C34.7293 28.3533 34.1086 27.7831 34.1086 27.1093V23.3254V21.7185V20.319H31.2872C30.5536 20.319 29.9329 19.7488 29.9329 19.075V13.6843H26.6601V19.075C26.6601 21.3039 28.5222 23.118 30.8358 23.3254V27.1611C30.8358 29.5455 32.9236 31.4633 35.5193 31.4633H42.7421V1.91798V1.24414V0.0519562H39.4129Z" fill="#153D8A"/>
<path d="M20.4533 40.6378L0.985593 22.7551C-0.312255 21.5629 -0.312255 19.645 0.985593 18.5047L20.1147 36.0764C21.469 37.2686 21.5819 39.2383 20.4533 40.6378Z" fill="#153D8A"/>
<path d="M21.4126 51.7821L0.985593 33.0182C-0.312255 31.826 -0.312255 29.9082 0.985593 28.7678L23.7261 49.6569L21.4126 51.7821Z" fill="#153D8A"/>
<path d="M6.68472 13.1658C4.48402 11.1443 3.29903 8.50076 3.29903 5.6499C3.29903 3.62837 3.91974 1.71052 5.0483 0H1.32404C-1.1588 5.02789 -0.143088 11.1443 4.31474 15.291L22.146 31.6705C24.3467 33.692 25.5317 36.3356 25.5317 39.1864C25.5317 42.0373 24.3467 44.6808 22.146 46.7024L19.4375 49.1904L21.751 51.3156L24.4596 48.8275C27.281 46.2359 28.8046 42.8148 28.8046 39.1864C28.8046 35.5581 27.281 32.0852 24.4596 29.5453L6.68472 13.1658Z" fill="#153D8A"/>
</svg>
